<?xml version="1.0" encoding="UTF-8" standalone="no"?>
<svg
   xmlns:dc="http://purl.org/dc/elements/1.1/"
   xmlns:cc="http://creativecommons.org/ns#"
   xmlns:rdf="http://www.w3.org/1999/02/22-rdf-syntax-ns#"
   xmlns:svg="http://www.w3.org/2000/svg"
   xmlns="http://www.w3.org/2000/svg"
   viewBox="0 0 486.66666 140.26666"
   height="140.26666"
   width="486.66666"
   xml:space="preserve"
   id="svg2"
   version="1.1"><metadata
     id="metadata8"><rdf:RDF><cc:Work
         rdf:about=""><dc:format>image/svg+xml</dc:format><dc:type
           rdf:resource="http://purl.org/dc/dcmitype/StillImage" /></cc:Work></rdf:RDF></metadata><defs
     id="defs6" /><g
     transform="matrix(1.3333333,0,0,-1.3333333,0,140.26667)"
     id="g10"><g
       transform="scale(0.1)"
       id="g12"><path
         id="path14"
         style="fill:#ed1e25;fill-opacity:1;fill-rule:nonzero;stroke:none"
         d="m 241.785,123.441 c 15.289,7.661 21.496,8.86 55.567,10.711 28.336,1.539 33.125,2.27 35.574,5.407 1.558,1.996 8.437,11.519 15.285,21.16 17.269,24.312 21.227,27.91 57.305,52.039 26.457,17.699 32.312,22.48 34.793,28.418 3.562,8.531 5.957,65.801 3.183,76.222 -0.976,3.668 -4.09,8.399 -6.918,10.508 -5.125,3.828 -5.203,3.824 -22.316,-0.304 -9.449,-2.282 -27.656,-7.258 -40.461,-11.063 -19.942,-5.926 -27.77,-7.187 -54.547,-8.793 -54.598,-3.277 -71.48,-6.98 -102.492,-22.461 -9.18,-4.582 -26.274,-12.414 -37.988,-17.406 -11.719,-4.996 -23.329,-10.965 -25.801,-13.274 -6.383,-5.945 -15.215,-25.515 -18.012,-39.906 -7.238,-37.226 10.227,-68.285 43.902,-78.07 8.215,-2.387 21.231,-7.356 28.914,-11.043 16.567,-7.945 21.782,-8.273 34.012,-2.145 z M 176.91,5.55078 C 170.461,8.60156 158.172,15.4883 149.602,20.8594 125.242,36.1289 118.363,39.0586 102.754,40.8086 85.5391,42.7383 79.3359,46.7383 64.6914,65.3789 59.332,72.2031 49.3125,82.2656 42.4297,87.7422 14.9336,109.621 9.03516,121.695 6.28906,161.695 5.29297,176.16 3.47266,197.871 2.24219,209.949 L 0,231.902 6.41016,248.91 c 15.19144,40.297 31.79294,67.254 54.66404,88.774 19.0586,17.929 36.0156,27.125 46.8278,25.394 6.735,-1.074 8.172,-0.43 16.774,7.559 13.289,12.332 18.191,14.324 46.578,18.914 13.844,2.238 32.184,6.172 40.758,8.742 8.57,2.566 21.718,5.281 29.218,6.031 7.5,0.746 18.024,3.004 23.379,5.02 6.672,2.5 14.856,3.652 25.969,3.656 19.34,0 31.082,4.109 60.188,21.059 l 19.043,11.086 18.824,-0.504 c 21.605,-0.575 27.59,1.074 31.527,8.699 7.324,14.187 12.856,66.301 9.242,87.062 -2.519,14.477 -9.5,31.879 -14.402,35.934 -1.742,1.437 -13.062,3.875 -25.152,5.418 -15.7,2 -24.778,4.234 -31.731,7.812 -11.75,6.047 -20.527,6.219 -40.133,0.789 -18.828,-5.218 -22.531,-5.003 -32.726,1.907 -7.207,4.883 -10.477,5.808 -20.531,5.808 -6.579,0 -17.008,1.317 -23.18,2.922 -15.262,3.977 -25.582,3.672 -39.914,-1.168 -14.52,-4.902 -23.715,-13.211 -23.715,-21.429 0,-3.293 3.855,-12.372 9.051,-21.313 l 9.047,-15.57 -1.086,-18.961 c -1.313,-22.844 -8.5,-47.215 -17.125,-58.071 -13.836,-17.41 -26.891,-21.535 -51.25,-16.199 -12.535,2.75 -17.387,2.977 -26.6487,1.254 -9.6602,-1.797 -12.6993,-1.586 -20.7149,1.442 -13.1719,4.976 -30.1797,16.89 -37.7422,26.437 -11.5156,14.543 -19.3984,47.035 -19.3437,79.746 0.082,47.297 15.9687,77.469 50.832,96.528 9.8906,5.41 19.9102,13.542 33.7145,27.375 10.801,10.828 23.453,22.07 28.118,24.988 4.66,2.918 13.761,9.199 20.226,13.957 l 11.758,8.656 30.422,-0.476 c 24.504,-0.387 32.691,0.195 42.109,2.984 6.43,1.906 23.629,4.601 38.223,5.992 25.008,2.387 27.211,2.941 38.242,9.645 12.973,7.879 17.242,8.425 33.32,4.265 6.047,-1.566 21.961,-4.195 35.364,-5.844 29.847,-3.675 34.097,-4.859 48.214,-13.41 6.153,-3.726 19.516,-10.047 29.696,-14.047 17.836,-7.007 19.25,-8.023 39.047,-28.093 25.718,-26.071 38.492,-42.95 49.429,-65.309 12.313,-25.176 16.559,-40.992 19.594,-73.055 1.473,-15.535 4.152,-32.449 5.957,-37.582 2.692,-7.668 2.895,-10.867 1.121,-17.91 -2.762,-10.969 -2.73,-20.984 0.121,-37.621 1.875,-10.914 1.707,-18.195 -0.925,-40.457 -1.766,-14.933 -4.184,-44.242 -5.375,-65.137 -1.188,-20.894 -3.079,-41.496 -4.2,-45.781 -3.691,-14.09 -3.976,-31.344 -0.711,-42.586 4.414,-15.183 3.848,-23.633 -2.699,-40.207 -3.433,-8.691 -5.797,-18.344 -5.836,-23.82 -0.101,-14.024 15.488,-52.184 22.406,-54.836 1.743,-0.668 6.594,-1.219 10.782,-1.219 7.168,0 8.179,0.781 17.367,13.41 10.945,15.051 18.476,19.707 31.871,19.707 15.844,0 83.52,-7.73 106.09,-12.121 24.578,-4.781 26.558,-4.379 31.914,6.457 5.129,10.379 7.035,21.598 14.34,84.375 8.601,73.969 8.718,77.387 2.89,85.27 -4.367,5.906 -4.484,7.031 -3.3,31.629 0.671,14.027 2.187,38.215 3.367,53.75 2.308,30.511 1.261,59.851 -3.235,90.453 -4.144,28.191 -3.851,46.117 1.071,65.195 6.554,25.43 6.261,28 -5.36,46.879 -12.34,20.055 -12.855,26.441 -4.187,51.82 6.375,18.676 6.437,21.84 0.805,42.153 l -3.618,13.047 4.547,9.707 c 5.867,12.523 4.922,18.414 -7.363,46.031 -5.242,11.777 -11.078,26.234 -12.969,32.129 -5.836,18.195 -10.406,20.758 -24.363,13.637 -10.5,-5.36 -18.348,-4.891 -32.805,1.949 -14.183,6.711 -17.199,7.054 -23.461,2.668 -6.476,-4.535 -18.14,-6.746 -25.09,-4.75 -3.273,0.937 -10.285,5.133 -15.586,9.324 -5.3,4.187 -18.101,12.305 -28.449,18.035 -22.531,12.484 -36.23,25.641 -44.394,42.637 -11.785,24.539 -6.481,53.926 15.613,86.472 15.25,22.467 29.996,37.447 43.488,44.187 15.336,7.67 24.391,7.67 46.067,0.01 28.453,-10.06 42.39,-12.25 98.711,-15.57 19.285,-1.13 41.199,-3.33 48.699,-4.87 17.914,-3.69 20.719,-3.58 36.285,1.43 l 13.18,4.25 14.23,-7.04 c 20.778,-10.27 24.738,-15.19 28.117,-34.881 5.563,-32.449 22.446,-88.473 32.129,-106.617 8.141,-15.258 7.785,-29.168 -1.394,-54.184 -10.703,-29.168 -10.582,-28.543 -12.477,-65.289 -1.683,-32.672 -2.117,-35.312 -8.195,-49.676 l -6.418,-15.168 v -78.898 -78.898 l 8.551,-21.25 8.547,-21.25 -7.125,-21.61 c -3.922,-11.883 -7.11,-24.976 -7.09,-29.094 0.023,-4.121 2.793,-16.339 6.152,-27.16 6.106,-19.66 6.109,-19.687 3.668,-38.851 -3.211,-25.203 -2.98,-31.211 1.77,-46.313 5.023,-15.957 5.015,-22.246 -0.055,-46.051 -3.09,-14.496 -4.156,-26.859 -4.344,-50.378 -0.273,-34.43 1.992,-49.09 9.84,-63.661 5.562,-10.332 6.277,-10.687 37.004,-18.394 19.863,-4.981 22.695,-5.258 31.17,-3.024 5.12,1.348 16.33,7.047 24.9,12.661 29.21,19.132 26.73,18.695 87.67,15.371 33.19,-1.813 76.37,-3.114 84.04,-2.539 6.06,0.457 14.51,35.172 20.06,82.316 2.22,18.93 6.33,45.094 9.13,58.141 5.44,25.382 5.34,26.453 -3.5,37.457 -4.26,5.3 -4.27,5.558 -1.95,37.988 3.33,46.629 2.95,108.789 -0.89,143.859 l -3.22,29.387 5.15,23.211 c 7.07,31.805 6.89,34.152 -3.94,51.512 -11.44,18.332 -12.67,27.23 -6.38,46.008 5.22,15.554 5.92,33.031 2.03,50.765 -2.5,11.403 -2.41,12.481 1.5,19.106 5.97,10.121 5.17,18.211 -3.9,39.531 -4.43,10.391 -11.05,26.781 -14.72,36.426 -8.22,21.578 -11.21,26.3 -16.63,26.3 -2.33,0 -7.55,-2.296 -11.6,-5.105 l -7.37,-5.105 -15.66,3.156 c -8.62,1.734 -20.43,3.156 -26.25,3.156 -10.28,0 -10.75,0.242 -16.36,8.395 -8.1,11.777 -9.28,12.464 -24.97,14.64 -10.36,1.434 -16.28,3.5 -22.72,7.934 -11.67,8.031 -22.09,20.301 -28.28,33.32 -6.98,14.688 -7.2,40.797 -0.53,62.34 6.37,20.547 20.2,46.446 30.6,57.296 8.83,9.21 25.53,18.63 33.12,18.66 2.22,0.01 13.28,-3.47 24.59,-7.73 11.31,-4.26 25.71,-8.26 32,-8.9 6.3,-0.63 16.71,-3.05 23.14,-5.37 10.38,-3.75 14.97,-4.16 40.91,-3.66 27.45,0.54 30.04,0.26 42.61,-4.48 l 13.39,-5.05 17.35,5.1 17.34,5.1 12.13,-5.89 c 15.06,-7.31 18.24,-9.87 20.86,-16.77 1.15,-3 7.28,-26.494 13.63,-52.201 9.72,-39.3 13.16,-49.992 21.63,-67.203 9.26,-18.832 9.97,-21.265 8.93,-30.433 -0.63,-5.485 -4.77,-19.61 -9.21,-31.399 -7.67,-20.394 -8.18,-23.113 -10.59,-56.492 -2.24,-31.012 -3.24,-36.977 -8.7,-51.602 -7.43,-19.917 -9.67,-40.609 -9.72,-89.636 -0.05,-49.156 2.52,-75.192 9.62,-97.406 9.37,-29.278 9.55,-38.153 1.24,-61.219 l -6.95,-19.336 7.02,-20.559 7.03,-20.558 -1.35,-29.414 c -1.3,-28.547 -1.19,-29.852 3.85,-44.446 l 5.19,-15.035 -6.03,-31.57 c -8.54,-44.692 -9.95,-54.879 -9.96,-72.184 -0.02,-14.137 0.59,-16.453 8.04,-30.769 9.46,-18.184 11.13,-19.278 39.92,-26.219 24,-5.785 30.87,-5.566 57.18,1.801 21.46,6.008 55.19,9.918 69.2,8.023 18.26,-2.473 31.2,-11.586 40.69,-28.668 9.03,-16.238 12.53,-33.414 9.34,-45.7655 -5.47,-21.1484 -23.89,-50.4804 -36.11,-57.4804 -2.6,-1.4883 -12.65,-2.4375 -26.58,-2.5196 -17.72,-0.1093 -26.5,-1.2109 -41.97,-5.289 l -19.57,-5.1602 -15.5,3.7813 c -21.69,5.2968 -40.4,6.6367 -56.92,4.0781 -10.62,-1.6484 -22.29,-1.6211 -46.75,0.1289 -52.19,3.7227 -68.9,3.3203 -88.85,-2.1367 -18.81,-5.1406 -19.2,-5.1016 -43.12,3.75 -10.95,4.0469 -12.67,4.1679 -27.32,1.9179 l -15.64,-2.4101 -12.07,6.0898 c -6.63,3.3516 -14.38,6.0899 -17.22,6.0899 -2.88,0 -9.54,-3.2188 -15.12,-7.3086 l -9.98,-7.3008 -18.99,0.5508 c -15.21,0.4375 -23.1,-0.461 -39.69,-4.5391 -19.74,-4.8515 -21.5,-4.9726 -37.54,-2.6015 -10.08,1.5 -37.501,2.5586 -68.447,2.6484 -28.39,0.0898 -60.828,0.8633 -72.078,1.7227 -19.695,1.5078 -21.09,1.3476 -37.414,-4.293 l -16.961,-5.8477 -14.211,6.1797 c -13.546,5.8789 -15.238,6.1485 -36.25,5.668 -21.761,-0.5 -22.211,-0.418 -36.039,6.4101 -11.582,5.7227 -15.343,6.7032 -21.793,5.7227 -11.812,-1.8203 -35.105,-8.4727 -44.359,-12.6719 -6.367,-2.8906 -12.742,-3.75 -28.066,-3.7773 -10.907,-0.0235 -26.536,-0.9727 -34.739,-2.1211 -32.988,-4.582 -58.816,4.8476 -81.523,29.789 C 504.68,68.0078 492.289,76.957 481.539,78.9297 473.508,80.4023 469.18,78.625 457.188,68.9375 452.742,65.3477 437.688,56.8242 423.73,49.9883 409.773,43.1719 395,34.9492 390.898,31.7383 386.801,28.5195 381.516,24.8789 379.156,23.6406 373.891,20.8789 328.023,17.6094 293.832,17.5508 257.52,17.4883 240.27,15.0313 219.391,6.94922 209.52,3.12891 198.563,0 195.039,0 191.516,0 183.355,2.5 176.91,5.55078 v 0" /><path
         id="path16"
         style="fill:#ed1e25;fill-opacity:1;fill-rule:nonzero;stroke:none"
         d="m 2136.95,21.5781 c -10.6,3.1328 -27.25,6.6407 -37.01,7.8203 -13.88,1.6719 -24.12,4.6524 -46.97,13.7032 -38,15.039 -37.71,14.8789 -44.68,24.9062 -3.28,4.7227 -8.01,11.0625 -10.5,14.0899 l -4.53,5.5 -8.13,-4.1172 c -4.47,-2.2657 -27.42,-17.0508 -50.99,-32.8594 l -42.86,-28.7305 -53,-2.332 -53.01,-2.3203 -11.75,5.2734 c -10.04,4.5078 -13.09,5.0469 -21.02,3.7188 -5.1,-0.8516 -16.73,-1.6289 -25.84,-1.7188 -14.4,-0.1406 -18.01,0.5586 -27.71,5.3164 -38.65,18.9805 -97.84,106.6679 -124.12,183.8789 -14.08,41.367 -14.03,40.84 -14.85,168.125 -0.4,62.68 -1.69,126.676 -2.88,142.211 -2.1,27.672 -7.11,57.801 -11.45,68.895 -2.16,5.531 -2.28,5.566 -14.37,4.273 -15.31,-1.641 -36.01,1.574 -45.63,7.086 -22.41,12.84 -42.42,34.004 -48.07,50.824 -3.65,10.859 -4.1,36.496 -1.1,62.758 2.39,20.875 6.32,27.926 22.82,40.918 22.79,17.937 45.89,21.258 74.5,10.707 17.34,-6.391 28.7,-7.52 30.43,-3.016 1.18,3.082 8.97,5.957 21.28,7.852 37.25,5.738 99.34,-33.18 118.2,-74.082 3.92,-8.52 4.42,-12.508 4.25,-34.004 -0.18,-22.836 -0.67,-25.746 -7.72,-46.754 -6.94,-20.648 -7.53,-24.082 -7.5,-43.832 0.03,-24.203 2.37,-32.152 16.4,-55.766 11.21,-18.863 11.71,-24.015 3.78,-39.121 -3.53,-6.742 -7.7,-14.765 -9.25,-17.832 -3.79,-7.461 -9.72,-30.808 -11.27,-44.359 -1.17,-10.235 -0.75,-11.863 6.28,-24.352 l 7.53,-13.383 0.97,-78.105 0.98,-78.109 7.67,-9.555 c 20.27,-25.25 41.8,-44.941 55.35,-50.656 4.89,-2.059 16.84,-3.344 38.31,-4.121 l 31.2,-1.129 14.34,15.355 c 24.24,25.957 76.43,94.313 93.45,122.403 8.87,14.636 23.04,50.261 28.03,70.492 l 4.19,16.961 -4.58,16.738 c -6.35,23.176 -6.79,31.59 -3.09,58.726 3.59,26.262 3.49,27.243 -6.04,57.145 -4.34,13.645 -6.33,23.094 -5.58,26.5 0.64,2.914 5.56,10.23 10.93,16.266 11.67,13.086 14.26,20.246 10.54,29.14 -3.99,9.543 -8.42,12.485 -24.24,16.082 -7.94,1.805 -22.84,6.785 -33.11,11.063 -17.72,7.379 -19.46,7.726 -34.25,6.828 -31.59,-1.922 -54.92,6.027 -74.81,25.504 -19.73,19.32 -21.91,29.812 -10.69,51.586 11.96,23.222 55,70.176 72.53,79.117 9.93,5.07 15.32,5.07 37.83,0 25.71,-5.789 39.28,-5.805 51.6,-0.055 l 9.97,4.657 13.28,-4.907 c 15.98,-5.898 19.79,-6.535 61.39,-10.246 38.43,-3.43 51.12,-7.308 63.22,-19.32 8.89,-8.824 10.67,-13.957 13.93,-40.102 1.14,-9.109 3.55,-24.011 5.36,-33.117 4.05,-20.391 4.61,-106.297 1.02,-155.461 -2.38,-32.652 -5.37,-47.125 -14.95,-72.469 -4.93,-13.035 -5.54,-17.128 -5.59,-37.988 -0.04,-17.969 0.91,-26.984 4.14,-38.961 3.62,-13.414 4.36,-22.781 5.33,-67.211 0.68,-31.437 0.26,-63.164 -1.09,-81.136 -2.09,-27.954 -2.01,-29.856 1.59,-36.012 4.94,-8.457 15.99,-12.559 44.22,-16.41 35.03,-4.778 57.5,-14.075 67.31,-27.856 9.57,-13.437 12.42,-53.5467 4.73,-66.5623 -1.81,-3.0586 -12.55,-11.6719 -23.88,-19.1367 -11.32,-7.4649 -28.47,-19.793 -38.11,-27.3946 -9.63,-7.5976 -18.84,-13.7382 -20.45,-13.6484 -1.62,0.0781 -11.61,2.7109 -22.21,5.8281 v 0" /><path
         id="path18"
         style="fill:#ed1e25;fill-opacity:1;fill-rule:nonzero;stroke:none"
         d="m 2303.22,32.6719 c -25.56,18.5469 -39.72,48.7578 -34.51,73.6171 6.52,31.074 26.14,47.988 55.82,48.125 7.6,0.039 20.25,-1.094 28.12,-2.516 12.82,-2.312 15.34,-2.226 24.37,0.844 13.49,4.582 30.46,16.258 34.97,24.055 4.87,8.41 13,48.859 13.02,64.769 0.01,6.965 -0.94,20.485 -2.11,30.039 -1.65,13.415 -1.38,35.18 1.15,95.458 4.4,104.476 3.47,225.289 -1.85,239.554 -4.73,12.688 -15.27,22.481 -37.88,35.211 -29.56,16.649 -25.97,16.125 -47.01,6.863 -20.55,-9.039 -29.28,-9.988 -42.84,-4.656 -30.95,12.18 -60.34,42.559 -70.71,73.102 -2.27,6.691 -2.55,10.859 -1.16,17.054 6.48,28.856 28.66,50.664 61.66,60.637 13.5,4.078 16.81,4.231 76.95,3.551 60.54,-0.684 63.16,-0.871 71.06,-5.051 10.16,-5.383 14.45,-5.422 28.99,-0.262 23.14,8.204 53.07,4.735 70.95,-8.222 9.53,-6.903 13.34,-14.68 22.6,-46.137 7.6,-25.828 14.37,-38.766 21.17,-40.477 9.9,-2.484 17.98,2.524 52.25,32.383 18.33,15.969 32.38,23.305 44.63,23.305 8.38,0 10.3,1.008 23.92,12.586 24.35,20.695 48.74,30.273 77.07,30.273 9.8,0 18.74,-1.328 26.2,-3.894 6.23,-2.145 13.41,-3.899 15.97,-3.899 2.55,0 8.08,1.754 12.28,3.899 12.58,6.418 16.94,5.32 29.12,-7.324 5.95,-6.172 23.64,-30.106 39.31,-53.184 l 28.5,-41.961 1.31,-18.41 c 2.37,-33.285 5.1,-57.043 9.16,-79.777 6.32,-35.364 1.95,-52.844 -17.58,-70.391 -12.39,-11.129 -50.23,-36.91 -66.76,-45.488 l -11.02,-5.719 -17.22,7.934 c -9.48,4.359 -21.17,9.55 -25.99,11.527 -20.56,8.441 -45.25,34.164 -57.76,60.195 -8.14,16.938 -8.49,28.301 -1.68,55.035 5.42,21.289 5.9,27.368 2.68,34.438 -3.09,6.769 -6.58,7.566 -18.28,4.164 -7.37,-2.141 -14.39,-6.594 -25.52,-16.168 -8.45,-7.27 -24.26,-20.402 -35.13,-29.188 -22.54,-18.191 -29.09,-25.496 -37.88,-42.218 -15.69,-29.84 -22.91,-40.102 -42.91,-60.969 -16.91,-17.641 -22.5,-25.012 -29.1,-38.324 l -8.16,-16.481 3.17,-22.066 c 3.89,-26.981 3.96,-46.524 0.36,-101.938 -1.53,-23.574 -3.4,-58.652 -4.14,-77.957 l -1.36,-35.093 12.43,-10.864 c 16.49,-14.414 29.21,-23.34 44.57,-31.254 l 12.66,-6.527 h 60.74 60.73 l 10.39,-8.961 c 27.34,-23.574 28.96,-51.332 4.84,-82.8867 -11.8,-15.4375 -25.31,-21.0273 -65.09,-26.9375 -27.23,-4.0507 -49.5,-3.7695 -68.91,0.8594 -14.21,3.4024 -16.64,3.5196 -21.07,1.0508 -17.94,-10 -15.81,-9.6914 -67.34,-9.7187 l -48.71,-0.0313 -11.44,5.3594 c -13.6,6.3594 -19.45,6.6015 -36.29,1.4609 -15.51,-4.7422 -34.72,-5 -54.56,-0.7422 -14.35,3.0938 -15.13,3.0508 -31.21,-1.2968 -25.82,-6.9922 -30.74,-7.043 -39.94,-0.3594 v 0" /><path
         id="path20"
         style="fill:#ed1e25;fill-opacity:1;fill-rule:nonzero;stroke:none"
         d="m 3388.71,494.844 c 16.96,4.476 34.05,8.949 37.98,9.933 9.08,2.282 23.42,16.618 29.93,29.922 10.23,20.922 8.39,56.946 -3.55,69.223 -13.96,14.375 -55.57,37.129 -76.89,42.055 -7.22,1.668 -19.7,6.695 -27.74,11.168 -14.04,7.82 -15.25,8.128 -31.17,8 -12.19,-0.102 -21.16,-1.543 -33.98,-5.461 -38.69,-11.817 -59.81,-23.258 -70.56,-38.239 -13.83,-19.246 -13.96,-19.34 -31.61,-22.398 -29.25,-5.078 -40.13,-13.449 -54.08,-41.586 -5.75,-11.594 -7.56,-17.77 -8.14,-27.766 -1.66,-28.715 11.33,-34.84 60.95,-28.742 16.59,2.039 19.67,1.867 34.88,-1.949 18.68,-4.684 28.45,-5.145 44.87,-2.109 12.19,2.253 16.74,1.566 45.98,-6.961 23.66,-6.899 42.69,-5.774 83.13,4.91 z M 3275.39,16.8281 c -37.68,2.5 -53.87,8.6914 -73.67,28.1719 -15.91,15.6523 -19.13,17.3398 -32.96,17.3398 -32.69,0 -66.87,15.4805 -102.5,46.4222 -16.07,13.953 -20.44,20.961 -26.36,42.222 -6.6,23.672 -11.68,34.625 -35.3,76.11 -36.75,64.551 -40.02,72.613 -50.45,124.543 -9.63,47.992 -10.13,55.32 -5.02,73.847 3.83,13.871 4.11,18.075 2.87,42.137 -1.66,31.977 -0.92,35.172 18.57,80.774 7.33,17.14 15.2,38.179 17.48,46.753 10.41,39.086 20.69,62.543 37.26,85.02 11.07,15.012 18.39,21.055 33.68,27.82 9.42,4.164 11.59,6.141 14.88,13.575 5.1,11.542 13.72,18.769 58.91,49.402 l 38.07,25.812 12.33,0.067 c 25.03,0.133 53.12,3.59 55.49,6.828 1.24,1.691 6.94,4.98 12.67,7.305 9.64,3.91 14.39,4.273 64.1,4.886 l 53.69,0.664 20.84,-10.933 c 11.47,-6.016 32.46,-15.145 46.64,-20.293 45.41,-16.477 80.05,-35.754 98.85,-55.02 6.96,-7.133 19.44,-17.558 27.72,-23.172 18.15,-12.296 21.92,-17.781 40.15,-58.386 20.13,-44.836 27.9,-69.321 28.43,-89.614 0.4,-14.832 1.31,-18.492 8.79,-35.066 11.5,-25.504 12.13,-34.73 3.91,-57.469 -3.49,-9.644 -8.94,-24.969 -12.1,-34.051 -3.17,-9.085 -8.22,-20.043 -11.22,-24.351 -11.46,-16.481 -28.98,-29.645 -48.28,-36.285 -12.91,-4.442 -19.6,-4.543 -41.3,-0.649 -18.37,3.301 -30.14,2.637 -56.96,-3.222 -21.52,-4.7 -32.37,-4.661 -80.44,0.285 -21.39,2.203 -48.98,4.14 -61.3,4.308 -20.73,0.286 -23.89,-0.187 -42.22,-6.312 l -19.81,-6.621 -18.31,3.597 c -17.33,3.407 -19.36,3.43 -37.66,0.426 -13.99,-2.297 -25.31,-2.844 -40.9,-1.988 -20.57,1.129 -22.09,0.941 -33.41,-4.141 -6.52,-2.925 -14.3,-7.867 -17.28,-10.98 l -5.42,-5.656 3.54,-19 c 7.52,-40.289 17.94,-75.856 26.88,-91.75 11.22,-19.95 22.28,-27.918 48.81,-35.161 16.32,-4.46 20.87,-6.812 34.48,-17.875 12.58,-10.222 19.31,-13.195 37.47,-16.554 18.84,-3.481 31.34,-7.215 46.66,-13.942 l 11.08,-4.863 25.94,7.024 c 14.26,3.863 31.19,7.949 37.62,9.082 19.37,3.41 24.73,5.785 38.78,17.199 16.47,13.367 34.98,34.16 57.17,64.203 22.27,30.156 34.79,44.598 42.14,48.629 4.98,2.722 11.49,3.316 36.26,3.316 34.93,0 40.84,-1.472 52.29,-13.043 23.2,-23.429 20.03,-71.656 -8.44,-128.636 -10.68,-21.36 -19.75,-34.368 -28.63,-41.036 -3.55,-2.664 -15.22,-8.48 -25.93,-12.9215 -10.72,-4.4453 -31.76,-14.9571 -46.76,-23.3633 -35.34,-19.8086 -65.62,-34.8516 -88.34,-43.9024 -15.56,-6.1992 -19.67,-7.1015 -28.25,-6.1406 -32.27,3.6094 -45.32,3.5313 -65.6,-0.4375 -23.55,-4.6133 -35.95,-5.8398 -49.63,-4.9336 v 0" /></g></g></svg>